<?xml version="1.0" encoding="UTF-8" standalone="no"?>
<!DOCTYPE svg PUBLIC "-//W3C//DTD SVG 1.1//EN" "http://www.w3.org/Graphics/SVG/1.1/DTD/svg11.dtd">
<svg version="1.1" xmlns="http://www.w3.org/2000/svg" xmlns:xlink="http://www.w3.org/1999/xlink" preserveAspectRatio="xMidYMid meet" viewBox="0 0 128 128" width="128" height="128"><defs><path d="M61.19 60C61.19 76.56 47.48 90 30.6 90C13.71 90 0 76.56 0 60C0 43.45 13.71 30 30.6 30C47.48 30 61.19 43.45 61.19 60Z" id="e1qtvmyxX8"></path><path d="M80.55 60C80.55 76.56 66.85 90 49.96 90C33.08 90 19.37 76.56 19.37 60C19.37 43.45 33.08 30 49.96 30C66.85 30 80.55 43.45 80.55 60Z" id="a4OJbpXGDz"></path><path d="M101.11 60C101.11 76.56 87.4 90 70.52 90C53.63 90 39.92 76.56 39.92 60C39.92 43.45 53.63 30 70.52 30C87.4 30 101.11 43.45 101.11 60Z" id="c16Es2q2sy"></path><path d="M127.72 60C127.72 76.56 114.01 90 97.13 90C80.24 90 66.54 76.56 66.54 60C66.54 43.45 80.24 30 97.13 30C114.01 30 127.72 43.45 127.72 60Z" id="d5MVaVHRQ9"></path></defs><g><g><g><g><use xlink:href="#e1qtvmyxX8" opacity="1" fill="#0dcb7f" fill-opacity="0.5"></use></g><g><use xlink:href="#a4OJbpXGDz" opacity="1" fill="#0dcb7f" fill-opacity="0.65"></use></g><g><use xlink:href="#c16Es2q2sy" opacity="1" fill="#0dcb7f" fill-opacity="0.81"></use></g><g><use xlink:href="#d5MVaVHRQ9" opacity="1" fill="#0dcb7f" fill-opacity="0.96"></use></g></g></g></g></svg>