<?xml version="1.0" encoding="iso-8859-1"?>
<!-- Generator: Adobe Illustrator 18.1.1, SVG Export Plug-In . SVG Version: 6.00 Build 0)  -->
<svg version="1.1" id="Capa_1" xmlns="http://www.w3.org/2000/svg" xmlns:xlink="http://www.w3.org/1999/xlink" x="0px" y="0px"
	 viewBox="0 0 62.387 62.387" style="enable-background:new 0 0 62.387 62.387;" xml:space="preserve">
<g>
	<g>
		<path style="fill:#010002;" d="M55.916,26.509c-6.936-3.387-13.674-7.448-19.238-12.843c-0.541-0.526-1.139-0.798-1.729-0.877
			c-0.926-0.386-2.146-0.711-3.749-0.933c-5.689-0.291-9.896-0.743-15.534,0.243c-1.385,0.242-2.264,1.728-2.303,3.025
			c-0.124,4.088,1.301,7.507,3.303,10.998c2.015,3.507,7.438,0.348,5.419-3.168c-0.993-1.729-1.794-3.333-2.187-5.116
			c4.053-0.34,8.323,0.028,12.333,0.253c0.005,0.003,0.008,0.008,0.013,0.013c5.94,5.762,13.101,10.206,20.507,13.824
			C56.368,33.697,59.553,28.287,55.916,26.509z"/>
		<circle style="fill:#010002;" cx="39.4" cy="5.687" r="5.687"/>
		<path style="fill:#010002;" d="M19.18,28.257c-1.055,0-2.003-0.449-2.703-1.245c-0.158,1.219-0.004,2.151,0.236,2.41
			c0.567,0.611,4.542,1.328,8.189-2.044c3.649-3.372,3.781-7.041,2.686-8.002c-0.871-0.766-3.414-0.973-6.104,0.525
			c0.356,0.803,0.782,1.613,1.283,2.485c0.706,1.23,0.725,2.602,0.052,3.765C22.09,27.41,20.628,28.257,19.18,28.257z"/>
		<path style="fill:#010002;" d="M26.146,18.336c0.02,0.002,0.037,0.006,0.056,0.009l-0.044-0.036
			C26.154,18.318,26.149,18.327,26.146,18.336z"/>
		<path style="fill:#010002;" d="M19.391,31.794c-0.603-0.225-1.246-0.292-1.861-0.137c-0.032-0.006-0.061-0.01-0.093-0.017
			c-0.008,0.015-0.014,0.03-0.022,0.046c-0.493,0.148-0.963,0.441-1.372,0.915C12.39,36.83,8.537,40.825,5.407,45.475
			c-2.268,3.367,3.173,6.506,5.419,3.169c2.238-3.326,5.401-6.267,8.263-9.242c0.091,0.085,0.184,0.166,0.278,0.246
			c-4.061,7.308-4.875,9.388-10.118,18.071c-2.096,3.476,3.333,6.629,5.419,3.17c5.826-9.657,7.707-11.909,13.176-21.514
			c0.537-0.457,1.029-0.984,1.463-1.576c0.336-0.457,0.666-0.91,0.995-1.361l-6.993-5.735
			C21.766,31.502,20.365,31.742,19.391,31.794z"/>
		<path style="fill:#010002;" d="M29.472,21.793c0.025,1.949-0.944,4.138-2.627,6.062l6.04,4.954
			c1.334-1.932,2.582-3.886,3.715-5.937l-7.207-5.911C29.44,21.222,29.469,21.5,29.472,21.793z"/>
	</g>
</g>
<g>
</g>
<g>
</g>
<g>
</g>
<g>
</g>
<g>
</g>
<g>
</g>
<g>
</g>
<g>
</g>
<g>
</g>
<g>
</g>
<g>
</g>
<g>
</g>
<g>
</g>
<g>
</g>
<g>
</g>
</svg>
