<?xml version="1.0" encoding="iso-8859-1"?>
<!-- Generator: Adobe Illustrator 18.1.1, SVG Export Plug-In . SVG Version: 6.00 Build 0)  -->
<svg version="1.1" id="Capa_1" xmlns="http://www.w3.org/2000/svg" xmlns:xlink="http://www.w3.org/1999/xlink" x="0px" y="0px"
	 viewBox="0 0 50.91 50.91" style="enable-background:new 0 0 50.91 50.91;" xml:space="preserve">
<g>
	<g>
		<circle style="fill:#010002;" cx="38.078" cy="46.331" r="4.579"/>
		<circle style="fill:#010002;" cx="30.606" cy="4.422" r="4.422"/>
		<path style="fill:#010002;" d="M24.85,17.604l-1.786,1.412l-0.009,0.024l1.873,0.688l0.678-1.847
			c0.184-0.501,0.398-1.004,0.635-1.529l-0.051-0.019C25.723,16.775,25.325,17.181,24.85,17.604z"/>
		<path style="fill:#010002;" d="M34.698,27.106c-1.088,2.83,3.451,4.041,4.527,1.248c2.875-7.456-0.268-13.922-7.363-17.128
			c-0.236-0.185-0.502-0.366-0.801-0.542c-2.123-1.256-3.865-1.591-5.27-1.447c-0.1-0.01-0.193-0.028-0.299-0.027
			c-4.7,0.039-9.382,0.548-14.083,0.587c-3.025,0.024-3.027,4.719,0,4.694c2.986-0.024,5.965-0.238,8.946-0.401L13.256,28.1
			l-4.768,9.545c-0.566,1.275-0.092,2.727,1.221,3.31c1.312,0.583,2.836,0.021,3.403-1.255l5.834-9.909c0,0,0.441-0.786,1.281-0.425
			s0.463,1.15,0.463,1.15l-8.768,15.772c-0.567,1.276,0.039,2.784,1.351,3.367c1.313,0.584,2.836,0.021,3.403-1.255
			c0,0,13.25-24.762,16.073-31.15C35.555,19.599,36.354,22.812,34.698,27.106z M27.776,20.774l-0.535,1.463l-1.002-0.368l-0.73,1.99
			l-1.847-0.679l0.73-1.989l-3.695-1.356l0.467-1.269l5.021-3.923l2.387,0.876l-1.796,4.888L27.776,20.774z"/>
	</g>
</g>
<g>
</g>
<g>
</g>
<g>
</g>
<g>
</g>
<g>
</g>
<g>
</g>
<g>
</g>
<g>
</g>
<g>
</g>
<g>
</g>
<g>
</g>
<g>
</g>
<g>
</g>
<g>
</g>
<g>
</g>
</svg>
